<svg width="146" height="21" viewBox="0 0 146 21" fill="none" xmlns="http://www.w3.org/2000/svg">
<path d="M12.9918 20.188C11.9464 20.188 11.1998 19.9827 10.7518 19.572C10.3038 19.1613 10.0798 18.5733 10.0798 17.808C10.0798 17.3973 10.1171 16.6693 10.1918 15.624C10.2664 14.5787 10.3504 13.4027 10.4438 12.096H5.45978L4.89978 19.768C4.88111 19.9173 4.84378 20.0293 4.78778 20.104C4.73178 20.16 4.61978 20.188 4.45178 20.188H2.91178C1.86644 20.188 1.11978 19.9827 0.671777 19.572C0.223777 19.1613 -0.000222579 18.5733 -0.000222579 17.808C-0.000222579 17.4347 0.0277774 16.8 0.0837774 15.904C0.139777 14.9893 0.214444 13.9533 0.307777 12.796C0.401111 11.6387 0.494444 10.416 0.587777 9.12799C0.681111 7.83999 0.774444 6.62665 0.867777 5.48799C0.961111 4.34932 1.03578 3.35065 1.09178 2.49199C1.14778 1.63332 1.17578 1.04532 1.17578 0.727987C1.17578 0.447987 1.32511 0.307987 1.62378 0.307987H3.16378C4.30244 0.307987 5.06778 0.550654 5.45978 1.03599C5.85178 1.52132 6.04778 2.23999 6.04778 3.19199C6.04778 3.34132 6.01978 3.87332 5.96378 4.78799C5.90778 5.68399 5.83311 6.76665 5.73978 8.03599H10.7518C10.8078 7.21465 10.8638 6.41199 10.9198 5.62799C10.9944 4.84399 11.0504 4.12532 11.0878 3.47199C11.1438 2.81865 11.1811 2.25865 11.1998 1.79199C11.2371 1.30665 11.2558 0.951987 11.2558 0.727987C11.2558 0.447987 11.4051 0.307987 11.7038 0.307987H13.2438C14.3824 0.307987 15.1478 0.550654 15.5398 1.03599C15.9318 1.52132 16.1278 2.23999 16.1278 3.19199C16.1278 3.28532 16.1091 3.58399 16.0718 4.08799C16.0531 4.59199 16.0158 5.22665 15.9598 5.99199C15.9038 6.75732 15.8384 7.61599 15.7638 8.56799C15.7078 9.50132 15.6424 10.4627 15.5678 11.452C15.5118 12.4413 15.4464 13.412 15.3718 14.364C15.3158 15.2973 15.2598 16.1467 15.2038 16.912C15.1478 17.6773 15.1011 18.3213 15.0638 18.844C15.0264 19.348 14.9984 19.656 14.9798 19.768C14.9611 19.9173 14.9238 20.0293 14.8678 20.104C14.8118 20.16 14.6998 20.188 14.5318 20.188H12.9918ZM28.529 -1.21593e-05C29.8916 -1.21593e-05 31.0583 0.195988 32.029 0.587987C32.9996 0.961321 33.793 1.52132 34.409 2.26799C35.025 2.99599 35.473 3.89199 35.753 4.95599C36.033 6.00132 36.173 7.19599 36.173 8.53999C36.173 9.28665 36.117 10.0987 36.005 10.976C35.9116 11.8533 35.725 12.74 35.445 13.636C35.1836 14.5133 34.8196 15.3627 34.353 16.184C33.8863 17.0053 33.2796 17.7333 32.533 18.368C31.805 19.0027 30.9276 19.516 29.901 19.908C28.8743 20.2813 27.661 20.468 26.261 20.468C24.7116 20.468 23.4236 20.2347 22.397 19.768C21.389 19.3013 20.577 18.676 19.961 17.892C19.3636 17.0893 18.9343 16.1467 18.673 15.064C18.4303 13.9813 18.309 12.824 18.309 11.592C18.309 10.136 18.477 8.71732 18.813 7.33599C19.149 5.93599 19.709 4.69465 20.493 3.61199C21.2956 2.52932 22.3503 1.66132 23.657 1.00799C24.9636 0.335987 26.5876 -1.21593e-05 28.529 -1.21593e-05ZM27.941 4.33999C27.2876 4.33999 26.7183 4.46132 26.233 4.70399C25.7663 4.92799 25.365 5.23599 25.029 5.62799C24.7116 6.01999 24.4503 6.45865 24.245 6.94399C24.0583 7.42932 23.909 7.93332 23.797 8.45599C23.685 8.95999 23.6103 9.45465 23.573 9.93999C23.5356 10.4067 23.517 10.8267 23.517 11.2C23.517 12.8987 23.797 14.14 24.357 14.924C24.9356 15.708 25.7476 16.1 26.793 16.1C27.6516 16.1 28.3516 15.8293 28.893 15.288C29.4343 14.728 29.8543 14.0653 30.153 13.3C30.4703 12.516 30.685 11.7133 30.797 10.892C30.909 10.052 30.965 9.34265 30.965 8.76399C30.965 7.40132 30.7316 6.32799 30.265 5.54399C29.7983 4.74132 29.0236 4.33999 27.941 4.33999ZM56.0252 5.26399C55.8759 5.71199 55.6799 6.29999 55.4372 7.02799C55.2132 7.73732 54.9612 8.52132 54.6812 9.37999C54.4012 10.2387 54.1119 11.1533 53.8132 12.124C53.5145 13.076 53.2065 14.0093 52.8892 14.924C52.5905 15.8387 52.2919 16.716 51.9932 17.556C51.6945 18.3773 51.4239 19.096 51.1812 19.712C51.1065 19.8613 50.9479 19.9827 50.7052 20.076C50.4812 20.1507 50.1172 20.188 49.6132 20.188C49.2959 20.188 48.9692 20.1693 48.6332 20.132C48.2972 20.0947 47.9799 20.02 47.6812 19.908C47.4012 19.796 47.1492 19.6467 46.9252 19.46C46.7199 19.2733 46.5612 19.04 46.4492 18.76C46.1692 17.808 45.8985 16.7533 45.6372 15.596C45.3945 14.42 45.1519 13.2253 44.9092 12.012C44.6665 10.7987 44.4239 9.61332 44.1812 8.45599C43.9572 7.27999 43.7239 6.21599 43.4812 5.26399C43.4812 5.52532 43.4719 5.97332 43.4532 6.60799C43.4345 7.24265 43.4159 7.97999 43.3972 8.81999C43.3785 9.65999 43.3505 10.5653 43.3132 11.536C43.2945 12.5067 43.2759 13.4587 43.2572 14.392C43.2385 15.3067 43.2199 16.1653 43.2012 16.968C43.1825 17.752 43.1732 18.396 43.1732 18.9C43.1732 19.46 43.1359 19.8147 43.0612 19.964C43.0052 20.1133 42.8932 20.188 42.7252 20.188H41.1852C40.1212 20.188 39.3652 19.9827 38.9172 19.572C38.4879 19.1427 38.2732 18.5173 38.2732 17.696C38.2732 17.472 38.2825 17.0987 38.3012 16.576C38.3385 16.0347 38.3852 15.4 38.4412 14.672C38.4972 13.944 38.5532 13.1507 38.6092 12.292C38.6839 11.4147 38.7585 10.528 38.8332 9.63199C38.9265 8.41865 39.0012 7.41065 39.0572 6.60799C39.1319 5.78665 39.1879 5.10532 39.2252 4.56399C39.2625 4.02265 39.2905 3.58399 39.3092 3.24799C39.3465 2.91199 39.3652 2.61332 39.3652 2.35199C39.3839 2.09065 39.3932 1.84799 39.3932 1.62399C39.4119 1.38132 39.4212 1.08265 39.4212 0.727987C39.4212 0.578654 39.4772 0.475988 39.5892 0.419987C39.7012 0.345321 39.8039 0.307987 39.8972 0.307987H43.8172C44.5452 0.307987 45.1425 0.429321 45.6092 0.671988C46.0759 0.895987 46.4585 1.25065 46.7572 1.73599C47.0559 2.22132 47.2985 2.85599 47.4852 3.63999C47.6719 4.40532 47.8399 5.31999 47.9892 6.38399C48.1572 7.44799 48.3345 8.67999 48.5212 10.08C48.7265 11.4613 48.9879 13.02 49.3052 14.756C49.6039 13.5987 49.8559 12.6373 50.0612 11.872C50.2665 11.1067 50.4345 10.472 50.5652 9.96799C50.7145 9.44532 50.8359 9.01599 50.9292 8.67999C51.0225 8.34399 51.1065 8.03599 51.1812 7.75599C51.2559 7.45732 51.3399 7.13999 51.4332 6.80399C51.5265 6.46799 51.6385 6.04799 51.7692 5.54399C51.8999 5.03999 52.0585 4.41465 52.2452 3.66799C52.4505 2.90265 52.7025 1.94132 53.0012 0.783988C53.0385 0.671987 53.1039 0.56932 53.1972 0.475987C53.2905 0.363987 53.4585 0.307987 53.7012 0.307987H58.0692C58.6665 0.307987 59.1425 0.373321 59.4972 0.503988C59.8705 0.615988 60.1599 0.783987 60.3652 1.00799C60.5705 1.23199 60.7105 1.51199 60.7852 1.84799C60.8599 2.16532 60.8972 2.53865 60.8972 2.96799C60.8972 3.39732 60.8692 4.09732 60.8132 5.06799C60.7759 6.01999 60.7105 7.10265 60.6172 8.31599C60.5425 9.51065 60.4585 10.752 60.3652 12.04C60.2905 13.328 60.2065 14.5227 60.1132 15.624C60.0385 16.7253 59.9732 17.6587 59.9172 18.424C59.8612 19.1893 59.8239 19.6373 59.8052 19.768C59.7865 19.9173 59.7492 20.0293 59.6932 20.104C59.6372 20.16 59.5252 20.188 59.3572 20.188H57.8172C56.7532 20.188 55.9972 19.9827 55.5492 19.572C55.1199 19.1427 54.9052 18.592 54.9052 17.92C54.9052 17.7147 54.9239 17.3413 54.9612 16.8C55.0172 16.2587 55.0825 15.624 55.1572 14.896C55.2319 14.168 55.3159 13.3747 55.4092 12.516C55.5025 11.6387 55.5865 10.7707 55.6612 9.91199C55.7359 9.05332 55.8012 8.22265 55.8572 7.41999C55.9319 6.59865 55.9879 5.87999 56.0252 5.26399ZM66.3649 20.188C65.3196 20.188 64.5729 19.9827 64.1249 19.572C63.6769 19.1613 63.4529 18.5733 63.4529 17.808C63.4529 17.4347 63.4809 16.8 63.5369 15.904C63.5929 14.9893 63.6676 13.9533 63.7609 12.796C63.8542 11.6387 63.9476 10.416 64.0409 9.12799C64.1342 7.83999 64.2276 6.62665 64.3209 5.48799C64.4142 4.34932 64.4889 3.35065 64.5449 2.49199C64.6009 1.63332 64.6289 1.04532 64.6289 0.727987C64.6289 0.447987 64.7782 0.307987 65.0769 0.307987H74.9329C75.0449 0.307987 75.1476 0.335987 75.2409 0.391988C75.3342 0.447987 75.3809 0.550654 75.3809 0.699987L75.2689 2.35199C75.2316 2.91199 75.0729 3.36932 74.7929 3.72399C74.5316 4.05999 73.9809 4.22799 73.1409 4.22799H69.2769L68.9969 8.17599H72.9729C73.0849 8.17599 73.1876 8.20399 73.2809 8.25999C73.3742 8.31599 73.4209 8.41865 73.4209 8.56799L73.3089 10.22C73.2716 10.78 73.1129 11.2373 72.8329 11.592C72.5716 11.928 72.0209 12.096 71.1809 12.096H68.7449L68.4369 16.268H74.5969C74.7089 16.268 74.8116 16.3053 74.9049 16.38C74.9982 16.436 75.0449 16.5293 75.0449 16.66L74.9329 18.312C74.8956 18.872 74.7369 19.3293 74.4569 19.684C74.1956 20.02 73.6449 20.188 72.8049 20.188H66.3649ZM94.9822 5.26399C94.8329 5.71199 94.6369 6.29999 94.3942 7.02799C94.1702 7.73732 93.9182 8.52132 93.6382 9.37999C93.3582 10.2387 93.0689 11.1533 92.7702 12.124C92.4716 13.076 92.1636 14.0093 91.8462 14.924C91.5476 15.8387 91.2489 16.716 90.9502 17.556C90.6516 18.3773 90.3809 19.096 90.1382 19.712C90.0636 19.8613 89.9049 19.9827 89.6622 20.076C89.4382 20.1507 89.0742 20.188 88.5702 20.188C88.2529 20.188 87.9262 20.1693 87.5902 20.132C87.2542 20.0947 86.9369 20.02 86.6382 19.908C86.3582 19.796 86.1062 19.6467 85.8822 19.46C85.6769 19.2733 85.5182 19.04 85.4062 18.76C85.1262 17.808 84.8556 16.7533 84.5942 15.596C84.3516 14.42 84.1089 13.2253 83.8662 12.012C83.6236 10.7987 83.3809 9.61332 83.1382 8.45599C82.9142 7.27999 82.6809 6.21599 82.4382 5.26399C82.4382 5.52532 82.4289 5.97332 82.4102 6.60799C82.3916 7.24265 82.3729 7.97999 82.3542 8.81999C82.3356 9.65999 82.3076 10.5653 82.2702 11.536C82.2516 12.5067 82.2329 13.4587 82.2142 14.392C82.1956 15.3067 82.1769 16.1653 82.1582 16.968C82.1396 17.752 82.1302 18.396 82.1302 18.9C82.1302 19.46 82.0929 19.8147 82.0182 19.964C81.9622 20.1133 81.8502 20.188 81.6822 20.188H80.1422C79.0782 20.188 78.3222 19.9827 77.8742 19.572C77.4449 19.1427 77.2302 18.5173 77.2302 17.696C77.2302 17.472 77.2396 17.0987 77.2582 16.576C77.2956 16.0347 77.3422 15.4 77.3982 14.672C77.4542 13.944 77.5102 13.1507 77.5662 12.292C77.6409 11.4147 77.7156 10.528 77.7902 9.63199C77.8836 8.41865 77.9582 7.41065 78.0142 6.60799C78.0889 5.78665 78.1449 5.10532 78.1822 4.56399C78.2196 4.02265 78.2476 3.58399 78.2662 3.24799C78.3036 2.91199 78.3222 2.61332 78.3222 2.35199C78.3409 2.09065 78.3502 1.84799 78.3502 1.62399C78.3689 1.38132 78.3782 1.08265 78.3782 0.727987C78.3782 0.578654 78.4342 0.475988 78.5462 0.419987C78.6582 0.345321 78.7609 0.307987 78.8542 0.307987H82.7742C83.5022 0.307987 84.0996 0.429321 84.5662 0.671988C85.0329 0.895987 85.4156 1.25065 85.7142 1.73599C86.0129 2.22132 86.2556 2.85599 86.4422 3.63999C86.6289 4.40532 86.7969 5.31999 86.9462 6.38399C87.1142 7.44799 87.2916 8.67999 87.4782 10.08C87.6836 11.4613 87.9449 13.02 88.2622 14.756C88.5609 13.5987 88.8129 12.6373 89.0182 11.872C89.2236 11.1067 89.3916 10.472 89.5222 9.96799C89.6716 9.44532 89.7929 9.01599 89.8862 8.67999C89.9796 8.34399 90.0636 8.03599 90.1382 7.75599C90.2129 7.45732 90.2969 7.13999 90.3902 6.80399C90.4836 6.46799 90.5956 6.04799 90.7262 5.54399C90.8569 5.03999 91.0156 4.41465 91.2022 3.66799C91.4076 2.90265 91.6596 1.94132 91.9582 0.783988C91.9956 0.671987 92.0609 0.56932 92.1542 0.475987C92.2476 0.363987 92.4156 0.307987 92.6582 0.307987H97.0262C97.6236 0.307987 98.0996 0.373321 98.4542 0.503988C98.8276 0.615988 99.1169 0.783987 99.3222 1.00799C99.5276 1.23199 99.6676 1.51199 99.7422 1.84799C99.8169 2.16532 99.8542 2.53865 99.8542 2.96799C99.8542 3.39732 99.8262 4.09732 99.7702 5.06799C99.7329 6.01999 99.6676 7.10265 99.5742 8.31599C99.4996 9.51065 99.4156 10.752 99.3222 12.04C99.2476 13.328 99.1636 14.5227 99.0702 15.624C98.9956 16.7253 98.9302 17.6587 98.8742 18.424C98.8182 19.1893 98.7809 19.6373 98.7622 19.768C98.7436 19.9173 98.7062 20.0293 98.6502 20.104C98.5942 20.16 98.4822 20.188 98.3142 20.188H96.7742C95.7102 20.188 94.9542 19.9827 94.5062 19.572C94.0769 19.1427 93.8622 18.592 93.8622 17.92C93.8622 17.7147 93.8809 17.3413 93.9182 16.8C93.9742 16.2587 94.0396 15.624 94.1142 14.896C94.1889 14.168 94.2729 13.3747 94.3662 12.516C94.4596 11.6387 94.5436 10.7707 94.6182 9.91199C94.6929 9.05332 94.7582 8.22265 94.8142 7.41999C94.8889 6.59865 94.9449 5.87999 94.9822 5.26399ZM111.23 0.307987C111.697 0.307987 112.079 0.40132 112.378 0.587987C112.695 0.755987 112.957 0.989321 113.162 1.28799C113.367 1.56799 113.535 1.89465 113.666 2.26799C113.797 2.64132 113.909 3.02399 114.002 3.41599C114.749 6.43999 115.365 8.93199 115.85 10.892C116.335 12.852 116.718 14.4387 116.998 15.652C117.278 16.8467 117.474 17.7333 117.586 18.312C117.698 18.8907 117.754 19.292 117.754 19.516C117.754 19.7773 117.689 19.9547 117.558 20.048C117.446 20.1413 117.259 20.188 116.998 20.188H115.57C114.767 20.188 114.123 20.0947 113.638 19.908C113.171 19.7027 112.807 19.4133 112.546 19.04C112.303 18.6667 112.126 18.2187 112.014 17.696C111.902 17.1547 111.809 16.548 111.734 15.876H106.862L105.938 19.74C105.845 20.0387 105.63 20.188 105.294 20.188H103.81C103.511 20.188 103.203 20.16 102.886 20.104C102.569 20.0293 102.279 19.9173 102.018 19.768C101.775 19.6187 101.57 19.432 101.402 19.208C101.234 18.9653 101.15 18.676 101.15 18.34C101.15 17.9293 101.281 17.2573 101.542 16.324C101.803 15.3907 102.13 14.336 102.522 13.16C102.933 11.9653 103.381 10.724 103.866 9.43599C104.37 8.12932 104.855 6.89732 105.322 5.73999C105.789 4.58265 106.209 3.56532 106.582 2.68799C106.974 1.81065 107.273 1.19465 107.478 0.839987C107.627 0.578654 107.758 0.429321 107.87 0.391988C108.001 0.335987 108.234 0.307987 108.57 0.307987H111.23ZM107.87 11.816H111.09L109.914 4.42399L107.87 11.816ZM127.31 4.22799L126.246 19.768C126.227 20.048 126.125 20.188 125.938 20.188H124.398C123.353 20.188 122.606 19.9827 122.158 19.572C121.71 19.1613 121.486 18.5733 121.486 17.808C121.486 17.528 121.495 17.108 121.514 16.548C121.551 15.988 121.598 15.3347 121.654 14.588C121.71 13.8227 121.766 13.0013 121.822 12.124C121.897 11.228 121.971 10.332 122.046 9.43599C122.121 8.52132 122.186 7.61599 122.242 6.71999C122.317 5.82399 122.382 4.99332 122.438 4.22799H117.958C117.753 4.22799 117.65 4.09732 117.65 3.83599L117.734 2.26799C117.753 2.02532 117.79 1.79199 117.846 1.56799C117.921 1.32532 118.033 1.11065 118.182 0.923988C118.331 0.737321 118.518 0.587988 118.742 0.475987C118.985 0.363987 119.274 0.307987 119.61 0.307987H132.126C132.238 0.307987 132.341 0.335987 132.434 0.391988C132.527 0.447987 132.574 0.550654 132.574 0.699987L132.462 2.35199C132.425 2.91199 132.266 3.36932 131.986 3.72399C131.725 4.05999 131.174 4.22799 130.334 4.22799H127.31ZM136.131 20.188C135.085 20.188 134.339 19.9827 133.891 19.572C133.443 19.1613 133.219 18.5733 133.219 17.808C133.219 17.4347 133.247 16.8 133.303 15.904C133.359 14.9893 133.433 13.9533 133.527 12.796C133.62 11.6387 133.713 10.416 133.807 9.12799C133.9 7.83999 133.993 6.62665 134.087 5.48799C134.18 4.34932 134.255 3.35065 134.311 2.49199C134.367 1.63332 134.395 1.04532 134.395 0.727987C134.395 0.447987 134.544 0.307987 134.843 0.307987H144.699C144.811 0.307987 144.913 0.335987 145.007 0.391988C145.1 0.447987 145.147 0.550654 145.147 0.699987L145.035 2.35199C144.997 2.91199 144.839 3.36932 144.559 3.72399C144.297 4.05999 143.747 4.22799 142.907 4.22799H139.043L138.763 8.17599H142.739C142.851 8.17599 142.953 8.20399 143.047 8.25999C143.14 8.31599 143.187 8.41865 143.187 8.56799L143.075 10.22C143.037 10.78 142.879 11.2373 142.599 11.592C142.337 11.928 141.787 12.096 140.947 12.096H138.511L138.203 16.268H144.363C144.475 16.268 144.577 16.3053 144.671 16.38C144.764 16.436 144.811 16.5293 144.811 16.66L144.699 18.312C144.661 18.872 144.503 19.3293 144.223 19.684C143.961 20.02 143.411 20.188 142.571 20.188H136.131Z" fill="#57C9D0"/>
</svg>
