<svg width="205" height="30" viewBox="0 0 205 30" fill="none" xmlns="http://www.w3.org/2000/svg">
<path d="M18.5602 28.8398C17.0668 28.8398 16.0002 28.5465 15.3602 27.9598C14.7202 27.3732 14.4002 26.5332 14.4002 25.4398C14.4002 24.8532 14.4535 23.8132 14.5602 22.3198C14.6668 20.8265 14.7868 19.1465 14.9202 17.2798H7.80016L7.00016 28.2398C6.97349 28.4532 6.92016 28.6132 6.84016 28.7198C6.76016 28.7998 6.60016 28.8398 6.36016 28.8398H4.16016C2.66683 28.8398 1.60016 28.5465 0.960159 27.9598C0.320159 27.3732 0.000159413 26.5332 0.000159413 25.4398C0.000159413 24.9065 0.0401594 23.9998 0.120159 22.7198C0.200159 21.4132 0.306826 19.9332 0.440159 18.2798C0.573493 16.6265 0.706826 14.8798 0.840159 13.0398C0.973493 11.1998 1.10683 9.46651 1.24016 7.83984C1.37349 6.21318 1.48016 4.78651 1.56016 3.55984C1.64016 2.33318 1.68016 1.49318 1.68016 1.03984C1.68016 0.639842 1.89349 0.439842 2.32016 0.439842H4.52016C6.14683 0.439842 7.24016 0.786509 7.80016 1.47984C8.36016 2.17318 8.64016 3.19984 8.64016 4.55984C8.64016 4.77318 8.60016 5.53318 8.52016 6.83984C8.44016 8.11984 8.33349 9.66651 8.20016 11.4798H15.3602C15.4402 10.3065 15.5202 9.15984 15.6002 8.03984C15.7068 6.91984 15.7868 5.89318 15.8402 4.95984C15.9202 4.02651 15.9735 3.22651 16.0002 2.55984C16.0535 1.86651 16.0802 1.35984 16.0802 1.03984C16.0802 0.639842 16.2935 0.439842 16.7202 0.439842H18.9202C20.5468 0.439842 21.6402 0.786509 22.2002 1.47984C22.7602 2.17318 23.0402 3.19984 23.0402 4.55984C23.0402 4.69317 23.0135 5.11984 22.9602 5.83984C22.9335 6.55984 22.8802 7.46651 22.8002 8.55984C22.7202 9.65318 22.6268 10.8798 22.5202 12.2398C22.4402 13.5732 22.3468 14.9465 22.2402 16.3598C22.1602 17.7732 22.0668 19.1598 21.9602 20.5198C21.8802 21.8532 21.8002 23.0665 21.7202 24.1598C21.6402 25.2532 21.5735 26.1732 21.5202 26.9198C21.4668 27.6398 21.4268 28.0798 21.4002 28.2398C21.3735 28.4532 21.3202 28.6132 21.2402 28.7198C21.1602 28.7998 21.0002 28.8398 20.7602 28.8398H18.5602ZM40.3133 -0.000156879C42.26 -0.000156879 43.9266 0.279843 45.3133 0.839842C46.7 1.37318 47.8333 2.17318 48.7133 3.23984C49.5933 4.27984 50.2333 5.55984 50.6333 7.07984C51.0333 8.57318 51.2333 10.2798 51.2333 12.1998C51.2333 13.2665 51.1533 14.4265 50.9933 15.6798C50.86 16.9332 50.5933 18.1998 50.1933 19.4798C49.82 20.7332 49.3 21.9465 48.6333 23.1198C47.9666 24.2932 47.1 25.3332 46.0333 26.2398C44.9933 27.1465 43.74 27.8798 42.2733 28.4398C40.8066 28.9732 39.0733 29.2398 37.0733 29.2398C34.86 29.2398 33.02 28.9065 31.5533 28.2398C30.1133 27.5732 28.9533 26.6798 28.0733 25.5598C27.22 24.4132 26.6066 23.0665 26.2333 21.5198C25.8866 19.9732 25.7133 18.3198 25.7133 16.5598C25.7133 14.4798 25.9533 12.4532 26.4333 10.4798C26.9133 8.47984 27.7133 6.70651 28.8333 5.15984C29.98 3.61318 31.4866 2.37318 33.3533 1.43984C35.22 0.479843 37.54 -0.000156879 40.3133 -0.000156879ZM39.4733 6.19984C38.54 6.19984 37.7266 6.37318 37.0333 6.71984C36.3666 7.03984 35.7933 7.47984 35.3133 8.03984C34.86 8.59984 34.4866 9.22651 34.1933 9.91984C33.9266 10.6132 33.7133 11.3332 33.5533 12.0798C33.3933 12.7998 33.2866 13.5065 33.2333 14.1998C33.18 14.8665 33.1533 15.4665 33.1533 15.9998C33.1533 18.4265 33.5533 20.1998 34.3533 21.3198C35.18 22.4398 36.34 22.9998 37.8333 22.9998C39.06 22.9998 40.06 22.6132 40.8333 21.8398C41.6066 21.0398 42.2066 20.0932 42.6333 18.9998C43.0866 17.8798 43.3933 16.7332 43.5533 15.5598C43.7133 14.3598 43.7933 13.3465 43.7933 12.5198C43.7933 10.5732 43.46 9.03984 42.7933 7.91984C42.1266 6.77318 41.02 6.19984 39.4733 6.19984ZM79.1508 7.51984C78.9375 8.15984 78.6575 8.99984 78.3108 10.0398C77.9908 11.0532 77.6308 12.1732 77.2308 13.3998C76.8308 14.6265 76.4175 15.9332 75.9908 17.3198C75.5641 18.6798 75.1241 20.0132 74.6708 21.3198C74.2441 22.6265 73.8175 23.8798 73.3908 25.0798C72.9641 26.2532 72.5775 27.2798 72.2308 28.1598C72.1241 28.3732 71.8975 28.5465 71.5508 28.6798C71.2308 28.7865 70.7108 28.8398 69.9908 28.8398C69.5375 28.8398 69.0708 28.8132 68.5908 28.7598C68.1108 28.7065 67.6575 28.5998 67.2308 28.4398C66.8308 28.2798 66.4708 28.0665 66.1508 27.7998C65.8575 27.5332 65.6308 27.1998 65.4708 26.7998C65.0708 25.4398 64.6841 23.9332 64.3108 22.2798C63.9641 20.5998 63.6175 18.8932 63.2708 17.1598C62.9241 15.4265 62.5775 13.7332 62.2308 12.0798C61.9108 10.3998 61.5775 8.87984 61.2308 7.51984C61.2308 7.89317 61.2175 8.53318 61.1908 9.43984C61.1641 10.3465 61.1375 11.3998 61.1108 12.5998C61.0841 13.7998 61.0441 15.0932 60.9908 16.4798C60.9641 17.8665 60.9375 19.2265 60.9108 20.5598C60.8841 21.8665 60.8575 23.0932 60.8308 24.2398C60.8041 25.3598 60.7908 26.2798 60.7908 26.9998C60.7908 27.7998 60.7375 28.3065 60.6308 28.5198C60.5508 28.7332 60.3908 28.8398 60.1508 28.8398H57.9508C56.4308 28.8398 55.3508 28.5465 54.7108 27.9598C54.0975 27.3465 53.7908 26.4532 53.7908 25.2798C53.7908 24.9598 53.8041 24.4265 53.8308 23.6798C53.8841 22.9065 53.9508 21.9998 54.0308 20.9598C54.1108 19.9198 54.1908 18.7865 54.2708 17.5598C54.3775 16.3065 54.4841 15.0398 54.5908 13.7598C54.7241 12.0265 54.8308 10.5865 54.9108 9.43984C55.0175 8.26651 55.0975 7.29318 55.1508 6.51984C55.2041 5.74651 55.2441 5.11984 55.2708 4.63984C55.3241 4.15984 55.3508 3.73318 55.3508 3.35984C55.3775 2.98651 55.3908 2.63984 55.3908 2.31984C55.4175 1.97317 55.4308 1.54651 55.4308 1.03984C55.4308 0.826509 55.5108 0.679843 55.6708 0.599843C55.8308 0.493176 55.9775 0.439842 56.1108 0.439842H61.7108C62.7508 0.439842 63.6041 0.613176 64.2708 0.959843C64.9375 1.27984 65.4841 1.78651 65.9108 2.47984C66.3375 3.17318 66.6841 4.07984 66.9508 5.19984C67.2175 6.29318 67.4575 7.59984 67.6708 9.11984C67.9108 10.6398 68.1641 12.3998 68.4308 14.3998C68.7241 16.3732 69.0975 18.5998 69.5508 21.0798C69.9775 19.4265 70.3375 18.0532 70.6308 16.9598C70.9241 15.8665 71.1641 14.9598 71.3508 14.2398C71.5641 13.4932 71.7375 12.8798 71.8708 12.3998C72.0041 11.9198 72.1241 11.4798 72.2308 11.0798C72.3375 10.6532 72.4575 10.1998 72.5908 9.71984C72.7241 9.23984 72.8841 8.63984 73.0708 7.91984C73.2575 7.19984 73.4841 6.30651 73.7508 5.23984C74.0441 4.14651 74.4041 2.77318 74.8308 1.11984C74.8841 0.959842 74.9775 0.813175 75.1108 0.679842C75.2441 0.519842 75.4841 0.439842 75.8308 0.439842H82.0708C82.9241 0.439842 83.6041 0.533176 84.1108 0.719843C84.6441 0.879843 85.0575 1.11984 85.3508 1.43984C85.6441 1.75984 85.8441 2.15984 85.9508 2.63984C86.0575 3.09318 86.1108 3.62651 86.1108 4.23984C86.1108 4.85318 86.0708 5.85318 85.9908 7.23984C85.9375 8.59984 85.8441 10.1465 85.7108 11.8798C85.6041 13.5865 85.4841 15.3598 85.3508 17.1998C85.2441 19.0398 85.1241 20.7465 84.9908 22.3198C84.8841 23.8932 84.7908 25.2265 84.7108 26.3198C84.6308 27.4132 84.5775 28.0532 84.5508 28.2398C84.5241 28.4532 84.4708 28.6132 84.3908 28.7198C84.3108 28.7998 84.1508 28.8398 83.9108 28.8398H81.7108C80.1908 28.8398 79.1108 28.5465 78.4708 27.9598C77.8575 27.3465 77.5508 26.5598 77.5508 25.5998C77.5508 25.3065 77.5775 24.7732 77.6308 23.9998C77.7108 23.2265 77.8041 22.3198 77.9108 21.2798C78.0175 20.2398 78.1375 19.1065 78.2708 17.8798C78.4041 16.6265 78.5241 15.3865 78.6308 14.1598C78.7375 12.9332 78.8308 11.7465 78.9108 10.5998C79.0175 9.42651 79.0975 8.39984 79.1508 7.51984ZM93.4789 28.8398C91.9856 28.8398 90.9189 28.5465 90.2789 27.9598C89.6389 27.3732 89.3189 26.5332 89.3189 25.4398C89.3189 24.9065 89.3589 23.9998 89.4389 22.7198C89.5189 21.4132 89.6256 19.9332 89.7589 18.2798C89.8922 16.6265 90.0256 14.8798 90.1589 13.0398C90.2922 11.1998 90.4256 9.46651 90.5589 7.83984C90.6922 6.21318 90.7989 4.78651 90.8789 3.55984C90.9589 2.33318 90.9989 1.49318 90.9989 1.03984C90.9989 0.639842 91.2122 0.439842 91.6389 0.439842H105.719C105.879 0.439842 106.026 0.479843 106.159 0.559843C106.292 0.639842 106.359 0.786508 106.359 0.999842L106.199 3.35984C106.146 4.15984 105.919 4.81318 105.519 5.31984C105.146 5.79984 104.359 6.03984 103.159 6.03984H97.6389L97.2389 11.6798H102.919C103.079 11.6798 103.226 11.7198 103.359 11.7998C103.492 11.8798 103.559 12.0265 103.559 12.2398L103.399 14.5998C103.346 15.3998 103.119 16.0532 102.719 16.5598C102.346 17.0398 101.559 17.2798 100.359 17.2798H96.8789L96.4389 23.2398H105.239C105.399 23.2398 105.546 23.2932 105.679 23.3998C105.812 23.4798 105.879 23.6132 105.879 23.7998L105.719 26.1598C105.666 26.9598 105.439 27.6132 105.039 28.1198C104.666 28.5998 103.879 28.8398 102.679 28.8398H93.4789ZM133.918 7.51984C133.705 8.15984 133.425 8.99984 133.078 10.0398C132.758 11.0532 132.398 12.1732 131.998 13.3998C131.598 14.6265 131.185 15.9332 130.758 17.3198C130.331 18.6798 129.891 20.0132 129.438 21.3198C129.011 22.6265 128.585 23.8798 128.158 25.0798C127.731 26.2532 127.345 27.2798 126.998 28.1598C126.891 28.3732 126.665 28.5465 126.318 28.6798C125.998 28.7865 125.478 28.8398 124.758 28.8398C124.305 28.8398 123.838 28.8132 123.358 28.7598C122.878 28.7065 122.425 28.5998 121.998 28.4398C121.598 28.2798 121.238 28.0665 120.918 27.7998C120.625 27.5332 120.398 27.1998 120.238 26.7998C119.838 25.4398 119.451 23.9332 119.078 22.2798C118.731 20.5998 118.385 18.8932 118.038 17.1598C117.691 15.4265 117.345 13.7332 116.998 12.0798C116.678 10.3998 116.345 8.87984 115.998 7.51984C115.998 7.89317 115.985 8.53318 115.958 9.43984C115.931 10.3465 115.905 11.3998 115.878 12.5998C115.851 13.7998 115.811 15.0932 115.758 16.4798C115.731 17.8665 115.705 19.2265 115.678 20.5598C115.651 21.8665 115.625 23.0932 115.598 24.2398C115.571 25.3598 115.558 26.2798 115.558 26.9998C115.558 27.7998 115.505 28.3065 115.398 28.5198C115.318 28.7332 115.158 28.8398 114.918 28.8398H112.718C111.198 28.8398 110.118 28.5465 109.478 27.9598C108.865 27.3465 108.558 26.4532 108.558 25.2798C108.558 24.9598 108.571 24.4265 108.598 23.6798C108.651 22.9065 108.718 21.9998 108.798 20.9598C108.878 19.9198 108.958 18.7865 109.038 17.5598C109.145 16.3065 109.251 15.0398 109.358 13.7598C109.491 12.0265 109.598 10.5865 109.678 9.43984C109.785 8.26651 109.865 7.29318 109.918 6.51984C109.971 5.74651 110.011 5.11984 110.038 4.63984C110.091 4.15984 110.118 3.73318 110.118 3.35984C110.145 2.98651 110.158 2.63984 110.158 2.31984C110.185 1.97317 110.198 1.54651 110.198 1.03984C110.198 0.826509 110.278 0.679843 110.438 0.599843C110.598 0.493176 110.745 0.439842 110.878 0.439842H116.478C117.518 0.439842 118.371 0.613176 119.038 0.959843C119.705 1.27984 120.251 1.78651 120.678 2.47984C121.105 3.17318 121.451 4.07984 121.718 5.19984C121.985 6.29318 122.225 7.59984 122.438 9.11984C122.678 10.6398 122.931 12.3998 123.198 14.3998C123.491 16.3732 123.865 18.5998 124.318 21.0798C124.745 19.4265 125.105 18.0532 125.398 16.9598C125.691 15.8665 125.931 14.9598 126.118 14.2398C126.331 13.4932 126.505 12.8798 126.638 12.3998C126.771 11.9198 126.891 11.4798 126.998 11.0798C127.105 10.6532 127.225 10.1998 127.358 9.71984C127.491 9.23984 127.651 8.63984 127.838 7.91984C128.025 7.19984 128.251 6.30651 128.518 5.23984C128.811 4.14651 129.171 2.77318 129.598 1.11984C129.651 0.959842 129.745 0.813175 129.878 0.679842C130.011 0.519842 130.251 0.439842 130.598 0.439842H136.838C137.691 0.439842 138.371 0.533176 138.878 0.719843C139.411 0.879843 139.825 1.11984 140.118 1.43984C140.411 1.75984 140.611 2.15984 140.718 2.63984C140.825 3.09318 140.878 3.62651 140.878 4.23984C140.878 4.85318 140.838 5.85318 140.758 7.23984C140.705 8.59984 140.611 10.1465 140.478 11.8798C140.371 13.5865 140.251 15.3598 140.118 17.1998C140.011 19.0398 139.891 20.7465 139.758 22.3198C139.651 23.8932 139.558 25.2265 139.478 26.3198C139.398 27.4132 139.345 28.0532 139.318 28.2398C139.291 28.4532 139.238 28.6132 139.158 28.7198C139.078 28.7998 138.918 28.8398 138.678 28.8398H136.478C134.958 28.8398 133.878 28.5465 133.238 27.9598C132.625 27.3465 132.318 26.5598 132.318 25.5998C132.318 25.3065 132.345 24.7732 132.398 23.9998C132.478 23.2265 132.571 22.3198 132.678 21.2798C132.785 20.2398 132.905 19.1065 133.038 17.8798C133.171 16.6265 133.291 15.3865 133.398 14.1598C133.505 12.9332 133.598 11.7465 133.678 10.5998C133.785 9.42651 133.865 8.39984 133.918 7.51984ZM156.686 0.439842C157.353 0.439842 157.899 0.573175 158.326 0.839842C158.779 1.07984 159.153 1.41318 159.446 1.83984C159.739 2.23984 159.979 2.70651 160.166 3.23984C160.353 3.77318 160.513 4.31984 160.646 4.87984C161.713 9.19984 162.593 12.7598 163.286 15.5598C163.979 18.3598 164.526 20.6265 164.926 22.3598C165.326 24.0665 165.606 25.3332 165.766 26.1598C165.926 26.9865 166.006 27.5598 166.006 27.8798C166.006 28.2532 165.913 28.5065 165.726 28.6398C165.566 28.7732 165.299 28.8398 164.926 28.8398H162.886C161.739 28.8398 160.819 28.7065 160.126 28.4398C159.459 28.1465 158.939 27.7332 158.566 27.1998C158.219 26.6665 157.966 26.0265 157.806 25.2798C157.646 24.5065 157.513 23.6398 157.406 22.6798H150.446L149.126 28.1998C148.993 28.6265 148.686 28.8398 148.206 28.8398H146.086C145.659 28.8398 145.219 28.7998 144.766 28.7198C144.313 28.6132 143.899 28.4532 143.526 28.2398C143.179 28.0265 142.886 27.7598 142.646 27.4398C142.406 27.0932 142.286 26.6798 142.286 26.1998C142.286 25.6132 142.473 24.6532 142.846 23.3198C143.219 21.9865 143.686 20.4798 144.246 18.7998C144.833 17.0932 145.473 15.3198 146.166 13.4798C146.886 11.6132 147.579 9.85318 148.246 8.19984C148.913 6.54651 149.513 5.09318 150.046 3.83984C150.606 2.58651 151.033 1.70651 151.326 1.19984C151.539 0.826509 151.726 0.613176 151.886 0.559843C152.073 0.479843 152.406 0.439842 152.886 0.439842H156.686ZM151.886 16.8798H156.486L154.806 6.31984L151.886 16.8798ZM179.215 6.03984L177.695 28.2398C177.668 28.6398 177.522 28.8398 177.255 28.8398H175.055C173.562 28.8398 172.495 28.5465 171.855 27.9598C171.215 27.3732 170.895 26.5332 170.895 25.4398C170.895 25.0398 170.908 24.4398 170.935 23.6398C170.988 22.8398 171.055 21.9065 171.135 20.8398C171.215 19.7465 171.295 18.5732 171.375 17.3198C171.482 16.0398 171.588 14.7598 171.695 13.4798C171.802 12.1732 171.895 10.8798 171.975 9.59984C172.082 8.31984 172.175 7.13318 172.255 6.03984H165.855C165.562 6.03984 165.415 5.85318 165.415 5.47984L165.535 3.23984C165.562 2.89317 165.615 2.55984 165.695 2.23984C165.802 1.89318 165.962 1.58651 166.175 1.31984C166.388 1.05318 166.655 0.839843 166.975 0.679842C167.322 0.519842 167.735 0.439842 168.215 0.439842H186.095C186.255 0.439842 186.402 0.479843 186.535 0.559843C186.668 0.639842 186.735 0.786508 186.735 0.999842L186.575 3.35984C186.522 4.15984 186.295 4.81318 185.895 5.31984C185.522 5.79984 184.735 6.03984 183.535 6.03984H179.215ZM191.373 28.8398C189.879 28.8398 188.813 28.5465 188.173 27.9598C187.533 27.3732 187.213 26.5332 187.213 25.4398C187.213 24.9065 187.253 23.9998 187.333 22.7198C187.413 21.4132 187.519 19.9332 187.653 18.2798C187.786 16.6265 187.919 14.8798 188.053 13.0398C188.186 11.1998 188.319 9.46651 188.453 7.83984C188.586 6.21318 188.693 4.78651 188.773 3.55984C188.853 2.33318 188.893 1.49318 188.893 1.03984C188.893 0.639842 189.106 0.439842 189.533 0.439842H203.613C203.773 0.439842 203.919 0.479843 204.053 0.559843C204.186 0.639842 204.253 0.786508 204.253 0.999842L204.093 3.35984C204.039 4.15984 203.813 4.81318 203.413 5.31984C203.039 5.79984 202.253 6.03984 201.053 6.03984H195.533L195.133 11.6798H200.813C200.973 11.6798 201.119 11.7198 201.253 11.7998C201.386 11.8798 201.453 12.0265 201.453 12.2398L201.293 14.5998C201.239 15.3998 201.013 16.0532 200.613 16.5598C200.239 17.0398 199.453 17.2798 198.253 17.2798H194.773L194.333 23.2398H203.133C203.293 23.2398 203.439 23.2932 203.573 23.3998C203.706 23.4798 203.773 23.6132 203.773 23.7998L203.613 26.1598C203.559 26.9598 203.333 27.6132 202.933 28.1198C202.559 28.5998 201.773 28.8398 200.573 28.8398H191.373Z" fill="white"/>
</svg>
