<svg width="16" height="16" viewBox="0 0 16 16" fill="none" xmlns="http://www.w3.org/2000/svg">
<path d="M7.68375 15.3681C11.88 15.3681 15.3678 11.8877 15.3678 7.68407C15.3678 3.48782 11.8723 0 7.67604 0C3.47271 0 0 3.48782 0 7.68407C0 11.8877 3.48011 15.3681 7.68375 15.3681ZM7.68407 14.0876C4.12779 14.0876 1.28732 11.2397 1.28732 7.68407C1.28732 4.1355 4.12007 1.28057 7.67604 1.28057C11.2243 1.28057 14.0792 4.13582 14.0869 7.68407C14.0943 11.24 11.2317 14.0876 7.68343 14.0876M7.67604 9.04757C8.03732 9.04757 8.24079 8.84411 8.24818 8.45261L8.36132 4.47493C8.36904 4.0905 8.06754 3.80443 7.66832 3.80443C7.26139 3.80443 6.97532 4.08311 6.98271 4.46721L7.08075 8.45261C7.08814 8.83671 7.29932 9.04757 7.67604 9.04757ZM7.67604 11.4959C8.10514 11.4959 8.48925 11.1494 8.48925 10.7126C8.48925 10.268 8.11286 9.92893 7.67604 9.92893C7.2315 9.92893 6.86218 10.2754 6.86218 10.7126C6.86218 11.142 7.23889 11.4959 7.67604 11.4959Z" fill="#57C9D0"/>
</svg>
