<svg width="30" height="30" viewBox="0 0 30 30" fill="none" xmlns="http://www.w3.org/2000/svg">
<circle cx="15" cy="15" r="15" fill="#57C9D0"/>
<g clip-path="url(#clip0_359_18555)">
<path d="M16.2981 21.875C16.1663 22.0897 15.977 22.2679 15.7493 22.3918C15.5216 22.5156 15.2634 22.5808 15.0006 22.5808C14.7378 22.5808 14.4797 22.5156 14.252 22.3918C14.0242 22.2679 13.835 22.0897 13.7031 21.875" stroke="white" stroke-linecap="round" stroke-linejoin="round"/>
<path d="M19.9723 16.2087C19.6386 15.0551 19.4795 13.8627 19.4998 12.667" stroke="white" stroke-linecap="round" stroke-linejoin="round"/>
<path d="M10.695 11.4346C10.5647 11.8338 10.499 12.2493 10.5 12.6671C10.5 17.6254 8.25 19.0421 8.25 19.0421H18.75" stroke="white" stroke-linecap="round" stroke-linejoin="round"/>
<path d="M19.4995 12.6665C19.5007 11.8965 19.2804 11.1408 18.8622 10.4799C18.444 9.81902 17.8436 9.27784 17.125 8.91417C16.4065 8.5505 15.5969 8.378 14.7826 8.41509C13.9684 8.45219 13.1801 8.69749 12.502 9.1248" stroke="white" stroke-linecap="round" stroke-linejoin="round"/>
<path d="M6.75 7.70801L23.25 23.2913" stroke="white" stroke-linecap="round" stroke-linejoin="round"/>
</g>
<defs>
<clipPath id="clip0_359_18555">
<rect width="18" height="17" fill="white" transform="translate(6 7)"/>
</clipPath>
</defs>
</svg>
