<svg width="41" height="41" viewBox="0 0 41 41" fill="none" xmlns="http://www.w3.org/2000/svg">
<path d="M28.5597 16.8V13.44C28.5597 8.80085 24.7989 5.04004 20.1597 5.04004C15.5205 5.04004 11.7597 8.80085 11.7597 13.44V16.8M20.1597 24.36V27.72M14.7837 35.28H25.5357C28.3584 35.28 29.7697 35.28 30.8478 34.7307C31.7962 34.2475 32.5672 33.4765 33.0504 32.5282C33.5997 31.45 33.5997 30.0387 33.5997 27.216V24.864C33.5997 22.0414 33.5997 20.63 33.0504 19.5519C32.5672 18.6036 31.7962 17.8326 30.8478 17.3494C29.7697 16.8 28.3584 16.8 25.5357 16.8H14.7837C11.9611 16.8 10.5497 16.8 9.47161 17.3494C8.52328 17.8326 7.75226 18.6036 7.26905 19.5519C6.71973 20.63 6.71973 22.0414 6.71973 24.864V27.216C6.71973 30.0387 6.71973 31.45 7.26905 32.5282C7.75226 33.4765 8.52328 34.2475 9.47161 34.7307C10.5497 35.28 11.9611 35.28 14.7837 35.28Z" stroke="white" stroke-width="3.36" stroke-linecap="round" stroke-linejoin="round"/>
</svg>
