<svg width="16" height="16" viewBox="0 0 16 16" fill="none" xmlns="http://www.w3.org/2000/svg">
<path d="M8 4.66667V11.3333M4.66667 8H11.3333M4.5 15.5H11.5C12.9001 15.5 13.6002 15.5 14.135 15.2275C14.6054 14.9878 14.9878 14.6054 15.2275 14.135C15.5 13.6002 15.5 12.9001 15.5 11.5V4.5C15.5 3.09987 15.5 2.3998 15.2275 1.86502C14.9878 1.39462 14.6054 1.01217 14.135 0.772484C13.6002 0.5 12.9001 0.5 11.5 0.5H4.5C3.09987 0.5 2.3998 0.5 1.86502 0.772484C1.39462 1.01217 1.01217 1.39462 0.772484 1.86502C0.5 2.3998 0.5 3.09987 0.5 4.5V11.5C0.5 12.9001 0.5 13.6002 0.772484 14.135C1.01217 14.6054 1.39462 14.9878 1.86502 15.2275C2.3998 15.5 3.09987 15.5 4.5 15.5Z" stroke="#B4B7BC" stroke-linecap="round" stroke-linejoin="round"/>
</svg>
